<?xml version="1.0" standalone="no"?>
<!DOCTYPE svg PUBLIC "-//W3C//DTD SVG 20010904//EN"
 "http://www.w3.org/TR/2001/REC-SVG-20010904/DTD/svg10.dtd">
<svg version="1.0" xmlns="http://www.w3.org/2000/svg"
 width="128.000000pt" height="128.000000pt" viewBox="0 0 128.000000 128.000000"
 preserveAspectRatio="xMidYMid meet">
<metadata>
Created by potrace 1.14, written by Peter Selinger 2001-2017
</metadata>
<g transform="translate(0.000000,128.000000) scale(0.100000,-0.100000)"
fill="#000000" stroke="none">
<path d="M0 640 l0 -640 640 0 640 0 0 640 0 640 -315 0 -315 0 0 -215 c0
-208 -1 -215 -20 -215 -19 0 -20 7 -20 215 l0 215 -305 0 -305 0 0 -640z m650
-355 c0 -268 0 -275 -20 -275 -20 0 -20 7 -20 275 0 268 0 275 20 275 20 0 20
-7 20 -275z"/>
</g>
</svg>
